<?xml version="1.0" encoding="UTF-8" standalone="no"?>
<!-- Created with Inkscape (http://www.inkscape.org/) -->

<svg
   width="22.58131mm"
   height="25.143354mm"
   viewBox="0 0 22.58131 25.143354"
   version="1.1"
   id="svg1"
   xml:space="preserve"
   xmlns:inkscape="http://www.inkscape.org/namespaces/inkscape"
   xmlns:sodipodi="http://sodipodi.sourceforge.net/DTD/sodipodi-0.dtd"
   xmlns="http://www.w3.org/2000/svg"
   xmlns:svg="http://www.w3.org/2000/svg"><sodipodi:namedview
     id="namedview1"
     pagecolor="#ffffff"
     bordercolor="#000000"
     borderopacity="0.25"
     inkscape:showpageshadow="2"
     inkscape:pageopacity="0.0"
     inkscape:pagecheckerboard="0"
     inkscape:deskcolor="#d1d1d1"
     inkscape:document-units="mm"><inkscape:page
       x="1.6582887e-15"
       y="0"
       width="22.581308"
       height="25.143354"
       id="page2"
       margin="0"
       bleed="0" /></sodipodi:namedview><defs
     id="defs1" /><g
     inkscape:label="Laag 1"
     inkscape:groupmode="layer"
     id="layer1"
     transform="translate(-94.447377,-105.26259)"><g
       id="g12"
       transform="matrix(0.26458333,0,0,0.26458333,92.521311,104.57713)"><g
         id="g11"
         style="fill:#ffffff"
         inkscape:export-filename="white_fingerprint.svg"
         inkscape:export-xdpi="96"
         inkscape:export-ydpi="96"><g
           id="g2"
           style="fill:#ffffff"><g
             id="g1"
             style="fill:#ffffff"><path
               d="m 23.8,13.8 c 0.9,-0.6 1.8,-1 2.8,-1.5 0.5,-0.2 0.9,-0.4 1.4,-0.7 0.1,-0.1 0.9,-0.4 0.6,-0.3 -0.3,0.2 0.2,-0.1 0.2,-0.1 0.2,-0.1 0.4,-0.2 0.7,-0.3 1.3,-0.5 2.7,-1 4.1,-1.4 7.9,-2.4 16.3,-3.1 24.6,-1.9 6.4,1 12.7,3.1 18.4,6 1.1,0.6 2.5,0.3 3.1,-0.8 0.6,-1 0.3,-2.6 -0.8,-3.1 -10,-5 -21.2,-7.7 -32.5,-7 -7.3,0.5 -14.4,2.2 -21,5.2 -1.3,0.6 -2.6,1.2 -3.8,2 -1,0.7 -1.5,2 -0.8,3.1 0.5,1 2,1.5 3,0.8 z"
               id="path1"
               style="fill:#ffffff" /></g></g><g
           id="g4"
           style="fill:#ffffff"><g
             id="g3"
             style="fill:#ffffff"><path
               d="m 18.7,79.9 c -1.1,-2.7 -1.7,-5.5 -2.2,-8.4 -0.1,-0.6 -0.2,-1.3 -0.3,-1.9 0,-0.1 -0.1,-0.7 0,0 0,-0.2 0,-0.3 -0.1,-0.5 0,-0.4 -0.1,-0.8 -0.1,-1.2 -0.2,-1.5 -0.2,-3 -0.2,-4.6 0,-1.6 0.1,-3.3 0.3,-4.9 0,-0.2 0,-0.4 0.1,-0.6 -0.1,0.5 0,-0.1 0,-0.2 0.1,-0.4 0.1,-0.8 0.2,-1.2 0.2,-0.9 0.3,-1.8 0.6,-2.6 1,-3.6 2.2,-6.5 4.4,-9.6 1,-1.4 2.2,-2.8 3.6,-4.1 1.6,-1.5 3.2,-2.8 5.1,-4 4.7,-3 10.1,-5.1 15.7,-5.6 6.1,-0.6 12.2,0.3 17.9,2.5 4.5,1.7 8.6,4.3 11.9,7.8 1.8,1.8 3.2,3.9 4.5,6.1 0.7,1.2 1.4,2.5 2,3.8 0.3,0.7 0.7,1.4 1,2.1 -0.2,-0.4 -0.1,-0.1 0,0 0.3,0.7 0.5,1.4 0.7,2.1 0.2,0.6 0.3,1.2 0.4,1.8 0.1,0.3 0.1,0.7 0.2,1.1 0,0.2 0.1,0.4 0.1,0.6 -0.1,-0.6 0,0.3 0,0.4 0.1,0.8 0.1,1.6 0.1,2.5 0,0.4 0,0.8 0,1.3 0,0.2 0,0.4 0,0.7 0,0.2 0,0.3 0,0.4 0,-0.2 0,-0.2 0,0 -0.3,2 -0.7,3.1 -1.9,4.7 0.2,-0.3 -0.2,0.3 -0.2,0.3 -0.2,0.2 -0.3,0.3 -0.5,0.5 -0.3,0.3 -0.6,0.6 -0.8,0.7 -1,0.8 -2.2,1.3 -3.4,1.6 -2.6,0.8 -5.6,0.6 -8.1,-0.7 -1.9,-1 -3.3,-2.4 -4.3,-4.3 -0.2,-0.4 -0.3,-0.6 -0.5,-1.2 -0.1,-0.3 -0.2,-0.7 -0.2,-1 -0.1,-0.4 -0.4,-1.2 0,-0.3 -0.2,-0.5 0,-1.2 -0.1,-1.7 0,-0.8 -0.2,-1.6 -0.3,-2.5 -2.2,-11 -17.9,-14.4 -25,-6.2 -5.4,6.2 -3.9,15.3 -1,22.3 3.3,8.1 9.6,14.5 17.4,18.4 2.5,1.3 5.2,2.3 7.9,3.2 2.8,0.9 4,-3.5 1.2,-4.4 C 60,91.5 55.1,89.2 51.3,86 48.1,83.4 45.9,80.6 43.9,77.1 43.5,76.3 43.1,75.5 42.7,74.7 42.5,74.3 42.8,74.9 42.6,74.5 42.5,74.3 42.4,74.1 42.4,74 42.2,73.6 42.1,73.2 42,72.8 c -0.5,-1.4 -0.9,-2.9 -1.2,-4.4 -0.1,-0.7 -0.2,-1.3 -0.3,-1.9 0,-0.2 0,-0.3 -0.1,-0.4 -0.1,-0.5 0,0.2 0,0 0,-0.3 -0.1,-0.6 -0.1,-0.9 -0.3,-2.5 0.1,-5 1.4,-7.2 2.8,-4.6 8.3,-5.4 12.9,-3.5 1.7,0.7 3.3,1.9 4.3,3.5 1.2,1.9 1.1,4 1.4,6.3 0.1,0.6 0,0.2 0,0.1 0,0.3 0.1,0.5 0.1,0.8 0.1,0.3 0.1,0.7 0.2,1 0.2,0.7 0.5,1.5 0.8,2.1 0.3,0.7 0.8,1.5 1.3,2.1 1.9,2.5 4.5,4.3 7.6,5.2 5.4,1.6 12,0.2 15.7,-4.2 C 90.5,66 90,58.1 87.9,51.7 86.5,47.5 84.1,43.5 81.4,40.1 78.4,36.2 74.6,32.9 70.2,30.6 58.8,24.6 45.1,23.8 33.4,29.2 25.3,32.9 18.3,39.2 14.8,47.5 12.1,53.9 11.3,61 12,68 c 0.4,4.2 1.2,8.4 2.6,12.4 0.1,0.2 0.2,0.4 0.2,0.6 0.5,1.2 1.5,2 2.8,1.6 0.6,-0.1 1.6,-1.5 1.1,-2.7 z"
               id="path2"
               style="fill:#ffffff" /></g></g><g
           id="g6"
           style="fill:#ffffff"><g
             id="g5"
             style="fill:#ffffff"><path
               d="m 11.5,38.1 c 0.1,-0.2 0.2,-0.3 0.4,-0.5 0.2,-0.2 0.3,-0.4 0.4,-0.6 0.1,-0.2 0.5,-0.6 0,0 0.1,-0.2 0.3,-0.3 0.4,-0.5 1.3,-1.6 2.8,-3.2 4.3,-4.7 2.3,-2.2 4.3,-3.8 6.9,-5.5 3.1,-2 6.4,-3.7 9.8,-4.9 4,-1.4 8.2,-2.3 12.5,-2.6 1.9,-0.1 3.8,-0.1 5.6,0 0.9,0 1.9,0.1 2.8,0.1 0.5,0 1.1,0.1 1.6,0.2 0.3,0 0.6,0.1 0.9,0.1 0.6,0.1 -0.5,-0.1 0.1,0 0.2,0 0.4,0 0.5,0.1 3,0.5 6,1.2 8.9,2.2 8.6,3 16.3,9.1 21.8,16.6 0.7,1 2,1.5 3.1,0.8 1,-0.6 1.5,-2.1 0.8,-3.1 C 86.9,28.3 79.8,22.2 71.3,18.5 65.6,16 59.5,14.6 53.3,14.3 47.4,14 41.3,14.4 35.6,16 c -7.4,2.1 -14.2,6 -20,11 -2.9,2.6 -5.8,5.5 -7.9,8.8 -1.7,2.5 2.2,4.8 3.8,2.3 z"
               id="path4"
               style="fill:#ffffff" /></g></g><g
           id="g8"
           style="fill:#ffffff"><g
             id="g7"
             style="fill:#ffffff"><path
               d="m 47.5,62.6 c -0.1,4.3 1.4,8.6 3.5,12.3 3,5.4 7.8,9.6 13.7,11.4 4.6,1.4 9.2,1.2 14,0.7 1.2,-0.1 2.3,-1 2.3,-2.3 0,-1.2 -1,-2.4 -2.3,-2.3 -3.9,0.4 -7.8,0.7 -11.4,-0.2 -1.6,-0.4 -2.7,-0.8 -3.9,-1.4 -0.6,-0.3 -1.2,-0.7 -1.8,-1 -0.3,-0.2 -0.5,-0.4 -0.8,-0.5 -0.2,-0.1 -0.3,-0.2 -0.4,-0.3 -0.1,-0.1 -0.1,-0.1 0,0 -0.1,-0.1 -0.2,-0.1 -0.2,-0.2 -1,-0.8 -2,-1.8 -2.8,-2.8 -0.2,-0.2 -0.4,-0.5 -0.6,-0.7 0.3,0.3 -0.3,-0.4 -0.3,-0.5 -0.4,-0.5 -0.7,-1.1 -1.1,-1.6 -0.6,-1 -1.1,-2 -1.6,-3.1 0,-0.1 -0.1,-0.2 -0.1,-0.3 0.2,0.5 0.1,0.2 0,0.1 -0.1,-0.3 -0.2,-0.5 -0.3,-0.8 -0.2,-0.5 -0.3,-1 -0.5,-1.5 -0.3,-0.9 -0.5,-1.8 -0.7,-2.7 0,-0.1 -0.1,-0.8 -0.1,-0.3 0.1,0.5 0,-0.2 0,-0.3 0,-0.6 0,-1.2 0,-1.8 0,-2.8 -4.5,-2.8 -4.6,0.1 z"
               id="path6"
               style="fill:#ffffff" /></g></g><g
           id="g10"
           style="fill:#ffffff"><g
             id="g9"
             style="fill:#ffffff"><path
               d="M 76.7,62.8 C 76.9,57 74.6,51.3 71,46.8 65.3,39.6 55.3,36.2 46.3,37.4 c -8.7,1.1 -17.3,7 -20.9,15.1 -2.3,5.3 -2.7,11.1 -1.9,16.7 1.5,10.2 6.8,19.5 14.2,26.6 2.1,2 5.3,-1.2 3.2,-3.2 -6.2,-6 -10.8,-13.5 -12.6,-22 -0.2,-0.7 -0.3,-1.4 -0.4,-2 0,-0.1 0,-0.3 -0.1,-0.4 -0.1,-0.6 0.1,0.5 0,-0.1 0,-0.3 -0.1,-0.7 -0.1,-1 -0.1,-0.9 -0.2,-1.9 -0.2,-2.8 0,-2 0.2,-3.9 0.6,-5.8 0.8,-3.7 2.6,-7.1 5.2,-9.7 1.3,-1.3 2.3,-2 3.6,-3 1.8,-1.2 3.6,-2.2 5.7,-2.9 4.8,-1.6 9.8,-1.4 14.5,0.1 3.5,1.1 6.5,2.9 8.9,5.4 1.3,1.3 2,2.2 3,3.9 0.4,0.6 0.7,1.3 1,2 0.1,0.2 0.2,0.3 0.2,0.5 0.2,0.5 -0.1,-0.3 0.1,0.2 0.1,0.3 0.3,0.7 0.4,1 0.4,1.2 0.8,2.4 1,3.7 0,0.3 0.1,0.5 0.1,0.8 -0.1,-0.8 0,0 0,0.2 0.1,0.8 0.1,1.6 0.1,2.3 0.2,2.8 4.8,2.8 4.8,-0.2 z"
               id="path8"
               style="fill:#ffffff" /></g></g></g></g></g></svg>
